<?xml version="1.0" encoding="UTF-8"?>
<svg id="Capa_2" data-name="Capa 2" xmlns="http://www.w3.org/2000/svg" viewBox="0 0 136.01 51.28">
  <defs>
    <style>
      .cls-1, .cls-2, .cls-3 {
        stroke-width: 0px;
      }

      .cls-1, .cls-3 {
        fill: #8b0e68;
      }

      .cls-2 {
        fill: #4b5c66;
      }

      .cls-2, .cls-3 {
        fill-rule: evenodd;
      }
    </style>
  </defs>
  <g id="Capa_1-2" data-name="Capa 1">
    <g>
      <path class="cls-2" d="M73.36,11.9c-.51,0-.91-.18-1.2-.54-.26-.36-.33-.79-.2-1.3.15-.6.65-1.18,1.49-1.75.87-.6,1.61-.9,2.2-.9.51,0,.89.19,1.15.58.29.36.38.79.24,1.3-.17.66-.65,1.26-1.45,1.79-.8.54-1.54.81-2.23.81M71.26,30.63c-1.17,0-1.55-.76-1.15-2.28.06-.21.15-.51.28-.9l.2-.76c.38-1.46.59-3.6.64-6.41.07-2.81.2-4.57.39-5.29.42-1.61,1.26-2.42,2.51-2.42.99,0,1.46.52,1.43,1.57-.18,5.97-.64,10.39-1.39,13.26-.56,2.15-1.53,3.23-2.9,3.23ZM82,30.54c-.54.69-1.18,1.03-1.93,1.03-.87,0-1.35-.43-1.46-1.3-.11-.72-.1-1.58.05-2.6.14-.9.27-1.79.38-2.69.12-.81.12-1.79,0-2.96-.11-.96-.22-1.93-.32-2.91-.21-1.85-.33-4.2-.37-7.03-.04-3.52.08-5.83.36-6.9.13-.51.43-.93.91-1.26.45-.36.93-.54,1.44-.54.93,0,1.4.54,1.42,1.61-.08,2.84-.06,7.06.06,12.68,2.51-3.32,4.95-4.97,7.34-4.97,1.52,0,2.58.88,3.17,2.64.5,1.52.54,3.09.12,4.7-.57,2.21-2.02,4.51-4.35,6.9-2.51,2.63-4.79,3.82-6.85,3.58ZM88.8,16.43c-.99,0-2.18,1.07-3.57,3.23-1.17,1.85-1.91,3.38-2.22,4.57-.02.09-.1.94-.22,2.55l.39.04c1.02,0,2.28-.9,3.79-2.69,1.35-1.64,2.18-3.03,2.47-4.17.42-1.61.2-2.79-.65-3.54ZM96.14,11.9c-.51,0-.91-.18-1.21-.54-.26-.36-.33-.79-.2-1.3.15-.6.65-1.18,1.48-1.75.87-.6,1.61-.9,2.21-.9.51,0,.89.19,1.15.58.29.36.38.79.24,1.3-.17.66-.65,1.26-1.45,1.79-.8.54-1.54.81-2.23.81ZM94.05,30.63c-1.17,0-1.55-.76-1.15-2.28.05-.21.15-.51.28-.9l.2-.76c.38-1.46.59-3.6.64-6.41.07-2.81.2-4.57.39-5.29.42-1.61,1.26-2.42,2.51-2.42.99,0,1.46.52,1.43,1.57-.18,5.97-.64,10.39-1.39,13.26-.56,2.15-1.53,3.23-2.9,3.23ZM124.32,15.7c-1.12.75-2.17,1.74-2.77,2.84,1.4-.57,2.53-1.06,3.39-1.48.1-.53-.15-1.16-.61-1.36ZM112.86,34.08c-.87,0-1.52-1.06-1.95-3.18-.04-.09-.23-1.58-.58-4.48-1.7,2.99-3.85,4.48-6.45,4.48-1.94,0-3.33-.73-4.18-2.19-.85-1.46-1.01-3.2-.49-5.2.67-2.57,1.87-4.85,3.62-6.85,2.04-2.33,4.28-3.54,6.72-3.63.1-4.75.35-7.9.76-9.45.14-.54.43-1.02.87-1.43.44-.42.93-.63,1.46-.63,1.04,0,1.54.55,1.49,1.66-.21,1.94-.45,4.84-.74,8.69-.06,2.62.12,5.85.52,9.69.07-.07.13-.14.21-.21.56-.54,2.62-1.29,3.08-1.23l.07-.27c.42-1.61,1.46-3.3,3.11-5.06,1.78-1.91,3.43-2.87,4.96-2.87,1.16,0,2.09.63,2.78,1.88.7,1.23.89,2.43.58,3.63-.31,1.2-1.4,2.27-3.26,3.23-.35.18-1.87.81-4.57,1.88.15.93.48,1.82,1,2.69.61,1.11,1.3,1.66,2.08,1.66.96,0,1.97-.57,3.04-1.7,1.08-1.16,2.08-1.75,3.01-1.75.72,0,.92.6.61,1.79-.4,1.52-1.39,2.81-2.97,3.85-1.59,1.04-3.14,1.57-4.66,1.57-1.61,0-2.98-.73-4.09-2.2-.94-1.22-1.54-2.7-1.8-4.43-.31.15-2.19.74-2.54.74-.09,0-.17,0-.26-.02.26,2.09.59,4.33.96,6.72.02.27,0,.52-.06.76-.13.51-.42.94-.88,1.3-.46.39-.94.58-1.45.58ZM109.55,16.83c-.34-.06-.57-.09-.69-.09-1.34,0-2.61.81-3.81,2.42-1,1.31-1.69,2.72-2.08,4.21-.26,1.02-.26,1.87,0,2.55.32.84.94,1.26,1.87,1.26s1.74-.84,2.53-2.51c.85-1.79,1.67-2.81,2.45-3.05-.15-1.61-.24-3.21-.28-4.79ZM55.57,51.28c-.51,0-.91-.19-1.19-.58-.26-.36-.33-.79-.2-1.3.1-.39.86-1.12,2.27-2.2,1.78-1.34,3.19-2.66,4.21-3.94,1.68-2.09,2.88-4.54,3.61-7.35.77-2.96,1.15-6.64,1.13-11.07-1.11,1.52-2.5,2.85-4.17,3.99-1.85,1.25-3.55,1.88-5.1,1.88-2.59,0-3.52-1.9-2.78-5.7-.94,1.1-2.48,2.27-4.61,3.51-3.18,1.88-5.69,2.82-7.54,2.82-3.88,0-5.96-2.48-6.22-7.44-.03-.55-.03-1.16,0-1.85-.58-.06-1.05-.3-1.42-.72-.35-.43-.45-.94-.29-1.54.23-.88.77-1.54,1.65-1.99.14-.07.31-.15.51-.23.24-1.7.58-3.62,1.01-5.77-.55-.06-1-.3-1.34-.72-.31-.42-.39-.91-.24-1.48.22-.84.72-1.46,1.52-1.88.82-.42,2.94-1.15,6.35-2.2,3.44-1.05,5.47-1.57,6.1-1.57.57,0,1.01.21,1.32.63.34.42.43.91.29,1.48-.28,1.08-1.65,2-4.13,2.78-1.75.42-3.51.85-5.27,1.3-.45,2.3-.79,4.02-1.03,5.15,0,0-.03.28-.07.71.6-.19,1.25-.4,1.96-.61,3.78-1.16,6.01-1.74,6.71-1.75.63-.01,1.11.2,1.46.63.38.43.5.94.35,1.54-.29,1.13-1.79,2.12-4.51,2.98-1.02.25-4.02,1.2-6.61,2.04-.06,1.38.04,2.58.31,3.61.44,1.76,1.31,2.64,2.63,2.64s2.72-.52,4.31-1.57c.54-.36,1.75-1.33,3.62-2.91,1.25-1.02,2.13-1.52,2.64-1.52.6,0,1.05.21,1.36.63.04.06.08.12.12.19.79-1.89,2.03-3.76,3.73-5.61,2.47-2.72,4.85-4.08,7.15-4.08,1.52,0,2.33.7,2.41,2.11.95-.09,1.46.36,1.53,1.34.72,7.91.35,14.69-1.12,20.34-.82,3.14-2.14,5.97-3.96,8.51-2.01,2.78-4.46,4.93-7.37,6.45-.38.21-.74.31-1.07.31ZM57.15,26.96c1.26.09,2.65-.73,4.18-2.46,1.39-1.55,2.25-3.02,2.58-4.39l.07-.27s.89-3.25-.51-3.54c-.91-.15-2.82,1.73-3.91,3.14-1.02,1.28-1.74,2.72-2.15,4.3-.29,1.14-.38,2.21-.26,3.23Z"/>
      <path class="cls-3" d="M13.84,15.1c.51-1.75-.64-3.73-2.3-4.89-1.51-1.06-3.28-.92-3.79.83-.52,1.75.41,4.11,2.07,5.27,1.66,1.16,3.51.54,4.03-1.21M89.72,29.9c.31-.35.48-.39.29-.07-4.41,7.14-25.12,30.33-73.63-2.59l-6.85,13.19c-3.17,5.85-5.23-1.43-3.87-3.94l7.16-11.74c-3.83-2.74-7.82-5.82-11.99-9.28-1.46-1.21-1.49-4.33,4.3-.35,3.29,2.26,6.5,4.42,9.62,6.45L25.72,3.6c4.06-6.58,4.32-2.57,3.09-.29l-10.64,20.47c27.38,17.32,48.45,24.52,65.47,11.51,3.18-2.43,5.16-4.44,6.07-5.39Z"/>
      <path class="cls-1" d="M85.37,43.77c.26.25.74.39,1.1.39,1.42,0,1.73-.86,1.73-2.16v-4.59l-.58.15v4.61c0,.76-.23,1.41-1.11,1.41-.32,0-.68-.17-.87-.38l-.27.57"/>
      <path class="cls-3" d="M89.71,41.98c-.03-.12-.04-.26-.04-.39,0-1.06.81-1.88,1.92-1.88.43,0,.79.18,1.01.41l-2.89,1.85M93.45,40.27c-.28-.55-1-1.1-1.86-1.1-1.41,0-2.46.99-2.46,2.42s.99,2.53,2.45,2.53c.58,0,1.34-.25,1.75-.67v-.66c-.51.42-1.1.78-1.79.78-.88,0-1.49-.67-1.67-1.1l3.59-2.2Z"/>
      <path class="cls-1" d="M93.77,43.4c.37.43.89.71,1.48.71.92,0,1.68-.46,1.68-1.45,0-1.75-2.49-.97-2.49-2.15,0-.54.45-.8.99-.8.43,0,.8.2,1.13.44l.31-.43c-.45-.32-.84-.55-1.41-.55-.81,0-1.56.51-1.56,1.37,0,1.65,2.49.97,2.49,2.15,0,.58-.46.87-1.02.87-.51,0-.83-.18-1.18-.52l-.41.35"/>
      <path class="cls-3" d="M99.52,38.68l1.28-1.31h-.72l-1.04,1.31h.49M97.78,39.28v3.08c0,1.07.45,1.75,1.65,1.75.72,0,1.29-.39,1.48-.82h.02v.78l.55-.07v-4.84l-.55.11v2.13c0,1.9-.56,2.22-1.45,2.22-.81,0-1.15-.48-1.15-1.33v-3.13l-.55.11Z"/>
      <path class="cls-1" d="M102.13,43.4c.37.43.89.71,1.48.71.92,0,1.68-.46,1.68-1.45,0-1.75-2.49-.97-2.49-2.15,0-.54.45-.8.99-.8.43,0,.8.2,1.13.44l.31-.43c-.45-.32-.84-.55-1.41-.55-.81,0-1.56.51-1.56,1.37,0,1.65,2.49.97,2.49,2.15,0,.58-.46.87-1.02.87-.51,0-.83-.18-1.18-.52l-.41.35"/>
      <path class="cls-3" d="M111.64,37.98c1.51,0,2.77,1.27,2.77,2.79s-1.27,2.79-2.77,2.79-2.77-1.27-2.77-2.79,1.27-2.79,2.77-2.79M111.64,37.4c-1.85,0-3.41,1.51-3.41,3.38s1.56,3.38,3.41,3.38,3.41-1.51,3.41-3.38-1.56-3.38-3.41-3.38Z"/>
      <path class="cls-3" d="M116.36,41.69c0-1.16.85-1.98,1.94-1.98s1.93.82,1.93,1.95c-.04,1.09-.79,1.91-1.9,1.91s-1.96-.77-1.96-1.88M115.81,41.54c0,1.55.92,2.58,2.5,2.58,1.39,0,2.46-1.16,2.46-2.53,0-1.49-1.07-2.42-2.37-2.42-.83,0-1.48.38-2.04,1.01v-2.98l-.55.11v4.23Z"/>
      <path class="cls-1" d="M122.09,39.17l-.55.11v4.83l.55-.11v-2.37c0-1.18.72-1.92,1.32-1.92.07,0,.16,0,.22,0l.24-.55c-.88,0-1.41.24-1.75,1.05h-.02v-1.05"/>
      <path class="cls-3" d="M124.46,41.98c-.03-.12-.04-.26-.04-.39,0-1.06.81-1.88,1.92-1.88.43,0,.79.18,1.01.41l-2.89,1.85M128.21,40.27c-.28-.55-1-1.1-1.86-1.1-1.41,0-2.46.99-2.46,2.42s.99,2.53,2.45,2.53c.58,0,1.33-.25,1.75-.67v-.66c-.51.42-1.1.78-1.79.78-.87,0-1.49-.67-1.67-1.1l3.59-2.2Z"/>
      <path class="cls-1" d="M129.41,39.17l-.55.11v4.83l.55-.11v-2.37c0-1.18.72-1.92,1.32-1.92.07,0,.16,0,.22,0l.24-.55c-.87,0-1.41.24-1.75,1.05h-.02v-1.05"/>
      <path class="cls-3" d="M133.6,39.72c1.06,0,1.87.92,1.87,1.93s-.81,1.93-1.87,1.93-1.87-.92-1.87-1.93.81-1.93,1.87-1.93M133.6,39.17c-1.39,0-2.42,1.2-2.42,2.47s1.03,2.47,2.42,2.47,2.42-1.2,2.42-2.47-1.03-2.47-2.42-2.47Z"/>
    </g>
  </g>
</svg>